<svg xmlns="http://www.w3.org/2000/svg" viewBox="0 0 1024 1024">
  <defs>
    <radialGradient id="bg" cx="50%" cy="38%" r="62%">
      <stop offset="0%" stop-color="#ff7474"/>
      <stop offset="68%" stop-color="#d93d3d"/>
      <stop offset="100%" stop-color="#b91818"/>
    </radialGradient>
    <filter id="shadow" x="-20%" y="-20%" width="140%" height="140%">
      <feDropShadow dx="0" dy="28" stdDeviation="26" flood-color="#000000" flood-opacity="0.28"/>
    </filter>
  </defs>

  <rect width="1024" height="1024" fill="#f7f7f7"/>

  <g filter="url(#shadow)">
    <circle cx="512" cy="512" r="395" fill="url(#bg)" stroke="#080808" stroke-width="28"/>
  </g>

  <g opacity="0.18" fill="none" stroke="#8e0000" stroke-width="42">
    <path d="M512 190v555"/>
    <path d="M255 405h510"/>
    <path d="M332 332c57-57 111-81 180-81 80 0 152 39 214 122"/>
    <path d="M310 375l-30 92 90-1"/>
    <path d="M744 404l2 95-89-18"/>
    <path d="M252 561l129 126"/>
    <path d="M644 686l130-125"/>
  </g>

  <g fill="#090909">
    <path d="M352 556h320l-33 151a36 36 0 0 1-35 28H420a36 36 0 0 1-35-28l-33-151zm27 37 25 112a8 8 0 0 0 8 6h180a8 8 0 0 0 8-6l24-112H379z"/>
    <path d="M396 436h232c64 0 114 50 114 113v22h-45v-22c0-39-30-68-69-68H396c-39 0-69 29-69 68v22h-45v-22c0-63 51-113 114-113z"/>
    <rect x="483" y="448" width="58" height="97" rx="6"/>
    <circle cx="603" cy="542" r="55"/>
    <circle cx="603" cy="542" r="19" fill="#d93d3d"/>
    <path d="M725 441l67-4-17 53 42 15-87 72 24-57-35-8z"/>
    <path d="M338 516l53-73-24-18 14-19 26 18 13-18 30 21-13 18 37 27-15 20-36-27-52 73z"/>
    <path d="M452 586h56v41c0 10 8 18 18 18s18-8 18-18v-41h56v44c0 30-24 54-54 54h-40c-30 0-54-24-54-54v-44z"/>
    <path d="M683 678l14 24 27 1-19 19 7 26-24-12-23 13 4-27-20-18 27-4z" fill="#cf2b2b"/>
  </g>
</svg>
